<svg xmlns="http://www.w3.org/2000/svg" width="28.999" height="19.937" viewBox="0 0 28.999 19.937">
  <g id="Group_669" data-name="Group 669" transform="translate(0 -80)">
    <g id="Group_662" data-name="Group 662" transform="translate(19.223 83.676)">
      <g id="Group_661" data-name="Group 661">
        <path id="Path_1870" data-name="Path 1870" d="M339.392,151.337l9.776,6.18V144.9Z" transform="translate(-339.392 -144.896)" fill="#0d4672"/>
      </g>
    </g>
    <g id="Group_664" data-name="Group 664" transform="translate(0 83.676)">
      <g id="Group_663" data-name="Group 663">
        <path id="Path_1871" data-name="Path 1871" d="M0,144.9v12.622l9.776-6.18Z" transform="translate(0 -144.896)" fill="#0d4672"/>
      </g>
    </g>
    <g id="Group_666" data-name="Group 666" transform="translate(0.054 80)">
      <g id="Group_665" data-name="Group 665">
        <path id="Path_1872" data-name="Path 1872" d="M28.092,80H2.718A1.79,1.79,0,0,0,.96,81.542L15.405,91.06,29.85,81.542A1.79,1.79,0,0,0,28.092,80Z" transform="translate(-0.96 -80)" fill="#0d4672"/>
      </g>
    </g>
    <g id="Group_668" data-name="Group 668" transform="translate(0.058 91.21)">
      <g id="Group_667" data-name="Group 667">
        <path id="Path_1873" data-name="Path 1873" d="M18.529,277.922l-2.565,1.689a.91.91,0,0,1-1,0L12.4,277.92l-11.378,7.2a1.787,1.787,0,0,0,1.754,1.53H28.153a1.787,1.787,0,0,0,1.754-1.53Z" transform="translate(-1.024 -277.92)" fill="#0d4672"/>
      </g>
    </g>
  </g>
</svg>
