<svg xmlns="http://www.w3.org/2000/svg" width="29.414" height="37.338" viewBox="0 0 29.414 37.338">
  <g id="Group_639" data-name="Group 639" transform="translate(-615 -2051)">
    <path id="Exclusion_1" data-name="Exclusion 1" d="M14.707,37.338h0a103.389,103.389,0,0,1-7.353-8.269A55.1,55.1,0,0,1,2.3,21.67,15.365,15.365,0,0,1,0,14.707,14.711,14.711,0,0,1,28.259,8.982a14.615,14.615,0,0,1,1.156,5.725,15.365,15.365,0,0,1-2.3,6.963,55.1,55.1,0,0,1-5.055,7.4,103.364,103.364,0,0,1-7.353,8.269ZM14.65,8.371a6.278,6.278,0,1,0,6.278,6.278A6.286,6.286,0,0,0,14.65,8.371Z" transform="translate(615 2051)" fill="#0d4672"/>
  </g>
</svg>
