<svg xmlns="http://www.w3.org/2000/svg" width="29" height="29" viewBox="0 0 29 29">
  <g id="phone-call" transform="translate(0 0)">
    <g id="Group_640" data-name="Group 640" transform="translate(0 0)">
      <path id="Path_1392" data-name="Path 1392" d="M24.751,4.245A14.5,14.5,0,1,0,29,14.5,14.5,14.5,0,0,0,24.751,4.245ZM21.959,20.2l0,0v0l-.735.73a3.867,3.867,0,0,1-3.649,1.044A12.848,12.848,0,0,1,13.842,20.3,17.24,17.24,0,0,1,10.9,17.923a17.372,17.372,0,0,1-2.2-2.668,13.532,13.532,0,0,1-1.653-3.345,3.867,3.867,0,0,1,.967-3.949l.86-.86a.614.614,0,0,1,.868,0l0,0L12.46,9.818a.614.614,0,0,1,0,.868l0,0-1.595,1.595a1.3,1.3,0,0,0-.135,1.692A18.653,18.653,0,0,0,12.639,16.2a18.539,18.539,0,0,0,2.513,2.112,1.31,1.31,0,0,0,1.672-.145L18.366,16.6a.614.614,0,0,1,.868,0l0,0,2.721,2.726A.614.614,0,0,1,21.959,20.2Z" transform="translate(0 0)" fill="#0d4672"/>
    </g>
  </g>
</svg>
