<svg xmlns="http://www.w3.org/2000/svg" width="253.768" height="82" viewBox="0 0 253.768 82">
  <g id="Group_83" data-name="Group 83" transform="translate(-28.687 -46.922)">
    <g id="APPI" transform="translate(101.506 46.922)">
      <path id="Path_1779" data-name="Path 1779" d="M473.236,46.922,489.53,91.136q1.083,2.71,1.625,3.709,1.541,2.834,6.751,3.125v2.376q-11.627-.458-23.337,0V97.97q4.126-.291,5.209-1.458,1.041-1.083-.083-3.667l-3.584-9.835H458.193l-3.417,10.168a2.544,2.544,0,0,0,1.188,3.313q1.9,1.105,6.605,1.479v2.376q-10-.416-19.919,0V97.97a12.3,12.3,0,0,0,6.084-1.708,8.433,8.433,0,0,0,3.084-4.375l15.5-44.965Zm-6.5,10.418-7.584,22.878h15.961Z" transform="translate(-442.649 -46.922)" fill="#fff"/>
      <path id="Path_1780" data-name="Path 1780" d="M818.534,81.212l-2.125.333V95.63a3.566,3.566,0,0,0,1.292,3.125,9.92,9.92,0,0,0,4.709,1.167V102.3q-11-.416-22.128,0V99.922a10.8,10.8,0,0,0,4.792-1.125,3.618,3.618,0,0,0,1.292-3.167V55.875a3.468,3.468,0,0,0-1.271-2.959,8.923,8.923,0,0,0-4.48-1.208V49.291q3.125.167,7.418.167,2.583,0,8-.083l5.5-.083q22.711,0,22.711,14.085,0,6.918-6.084,11.418Q832.035,79.295,818.534,81.212Zm-2.125-29.254V78.67l2.125-.251q8.542-1.124,12.168-4.875a13.441,13.441,0,0,0,3.625-9.751q0-5.542-2.875-8.689t-8.46-3.146Z" transform="translate(-737.371 -48.874)" fill="#fff"/>
      <path id="Path_1781" data-name="Path 1781" d="M1090.2,81.212l-2.126.333V95.63a3.565,3.565,0,0,0,1.292,3.125,9.917,9.917,0,0,0,4.708,1.167V102.3q-11-.416-22.128,0V99.922a10.8,10.8,0,0,0,4.793-1.125,3.619,3.619,0,0,0,1.292-3.167V55.875a3.469,3.469,0,0,0-1.271-2.959,8.923,8.923,0,0,0-4.48-1.208V49.291q3.127.167,7.418.167,2.583,0,8-.083l5.5-.083q22.711,0,22.711,14.085,0,6.918-6.084,11.418Q1103.7,79.295,1090.2,81.212Zm-2.126-29.254V78.67l2.126-.251q8.542-1.124,12.168-4.875a13.446,13.446,0,0,0,3.625-9.751q0-5.542-2.876-8.689t-8.459-3.146Z" transform="translate(-961.246 -48.874)" fill="#fff"/>
      <path id="Path_1782" data-name="Path 1782" d="M1359.91,55.959V95.63a3.493,3.493,0,0,0,1.355,3.125,10.478,10.478,0,0,0,4.813,1.167V102.3q-11.169-.416-22.462,0V99.922a10.7,10.7,0,0,0,4.9-1.167,3.5,3.5,0,0,0,1.354-3.125V55.959a3.445,3.445,0,0,0-1.354-3.1,10.947,10.947,0,0,0-4.9-1.146V49.291q11.169.417,22.462,0v2.417a10.489,10.489,0,0,0-4.813,1.167A3.449,3.449,0,0,0,1359.91,55.959Z" transform="translate(-1185.13 -48.874)" fill="#fff"/>
    </g>
    <g id="ENERGY" transform="translate(153.003 113.703)">
      <path id="Path_1783" data-name="Path 1783" d="M743.774,442.572H735.4v-14.8h8.374v2.045H737.82v4.03H743.4v2.025H737.82v4.648h5.954Z" transform="translate(-735.4 -427.555)" fill="#fff"/>
      <path id="Path_1784" data-name="Path 1784" d="M872.006,442.572h-2.967l-7.281-11.8h-.081l.051.658q.141,1.883.142,3.443v7.7h-2.2v-14.8h2.937l7.26,11.736h.061q-.021-.232-.081-1.7t-.061-2.284v-7.756h2.218Z" transform="translate(-837.813 -427.555)" fill="#fff"/>
      <path id="Path_1785" data-name="Path 1785" d="M1018.857,442.572h-8.374v-14.8h8.374v2.045H1012.9v4.03h5.579v2.025H1012.9v4.648h5.954Z" transform="translate(-962.094 -427.555)" fill="#fff"/>
      <path id="Path_1786" data-name="Path 1786" d="M1137.171,436.659v5.914h-2.42v-14.8h4.182a6.871,6.871,0,0,1,4.243,1.073,3.853,3.853,0,0,1,1.377,3.24,4.051,4.051,0,0,1-2.876,3.939l4.182,6.551H1143.1l-3.544-5.914Zm0-2.005h1.681a3.841,3.841,0,0,0,2.45-.628,2.277,2.277,0,0,0,.759-1.863,2,2,0,0,0-.82-1.8,4.5,4.5,0,0,0-2.471-.547h-1.6Z" transform="translate(-1064.502 -427.555)" fill="#fff"/>
      <path id="Path_1787" data-name="Path 1787" d="M1271.219,433.546h5.448v7.433a15.78,15.78,0,0,1-2.567.618,18.185,18.185,0,0,1-2.658.182,6.68,6.68,0,0,1-5.185-1.989,8.015,8.015,0,0,1-1.823-5.615,7.49,7.49,0,0,1,2.056-5.595,7.729,7.729,0,0,1,5.66-2.02,11.02,11.02,0,0,1,4.395.891l-.85,2.015a8.547,8.547,0,0,0-3.6-.83,4.855,4.855,0,0,0-3.747,1.488,5.76,5.76,0,0,0-1.377,4.071,6.073,6.073,0,0,0,1.241,4.126,4.493,4.493,0,0,0,3.569,1.413,11.751,11.751,0,0,0,2.511-.294v-3.818h-3.068Z" transform="translate(-1171.374 -426.559)" fill="#fff"/>
      <path id="Path_1788" data-name="Path 1788" d="M1407.681,434.522l3.5-6.754h2.633l-4.931,9.063v5.741h-2.43v-5.66l-4.911-9.144h2.633Z" transform="translate(-1284.366 -427.555)" fill="#fff"/>
    </g>
    <g id="EMBLEM" transform="translate(28.687 46.924)">
      <g id="Group_72" data-name="Group 72" transform="translate(19.207 43.826)">
        <path id="Path_1789" data-name="Path 1789" d="M137.89,301.406q0-1.829,0-3.659a1.525,1.525,0,0,1,1.655-1.668q3.659-.006,7.317,0a1.535,1.535,0,0,1,1.7,1.695c.007,1.835,0,3.669,0,5.5a6.334,6.334,0,0,0,.552,2.783,4.6,4.6,0,0,0,3.631,2.624,11.276,11.276,0,0,0,1.709.119c1.728.015,3.457,0,5.186.007a1.513,1.513,0,0,1,1.648,1.612q.016,3.722,0,7.445a1.536,1.536,0,0,1-1.627,1.614q-3.675.009-7.349,0a1.544,1.544,0,0,1-1.691-1.7c0-1.856,0-3.712,0-5.568a6.542,6.542,0,0,0-.4-2.338,4.622,4.622,0,0,0-3.882-3.024,10.443,10.443,0,0,0-1.553-.1c-1.729-.012-3.458-.029-5.186,0a1.616,1.616,0,0,1-1.72-1.72C137.926,303.826,137.891,302.615,137.89,301.406Z" transform="translate(-137.878 -296.077)" fill="#fff"/>
      </g>
      <g id="Group_73" data-name="Group 73" transform="translate(4.641 58.384)">
        <path id="Path_1790" data-name="Path 1790" d="M55.081,396.893c0-1.241,0-2.482,0-3.722a1.506,1.506,0,0,1,1.593-1.6c1.8-.01,3.606-.006,5.409,0a7.088,7.088,0,0,0,2.593-.4,4.7,4.7,0,0,0,3.07-4.164,12.2,12.2,0,0,0,.061-1.429c.007-1.718,0-3.436.005-5.154a1.516,1.516,0,0,1,1.576-1.588c.191,0,.382,0,.573,0q3.42,0,6.84,0a1.548,1.548,0,0,1,1.68,1.655q.007,3.691,0,7.381a1.522,1.522,0,0,1-1.632,1.63c-1.845.005-3.691,0-5.536,0a6.66,6.66,0,0,0-2.582.455,4.652,4.652,0,0,0-2.89,3.885,8.686,8.686,0,0,0-.078,1.268c-.008,1.792,0,3.584,0,5.377a1.558,1.558,0,0,1-1.719,1.744c-2.429,0-4.857-.019-7.286.012a1.628,1.628,0,0,1-1.685-1.694c.043-1.218.011-2.439.011-3.658Z" transform="translate(-55.069 -378.835)" fill="#fff"/>
      </g>
      <g id="Group_74" data-name="Group 74" transform="translate(40.177 42.176)">
        <path id="Path_1791" data-name="Path 1791" d="M262.422,286.7c1.23,0,2.461,0,3.691,0a1.531,1.531,0,0,1,1.648,1.646q0,3.675,0,7.35a1.542,1.542,0,0,1-1.659,1.675q-3.659,0-7.318,0a1.551,1.551,0,0,1-1.7-1.7q0-3.627,0-7.254A1.543,1.543,0,0,1,258.8,286.7Q260.609,286.694,262.422,286.7Z" transform="translate(-257.085 -286.695)" fill="#fff"/>
      </g>
      <g id="Group_75" data-name="Group 75" transform="translate(16.635 29.26)">
        <path id="Path_1792" data-name="Path 1792" d="M133.934,218.588c0,1.24,0,2.48,0,3.72a1.534,1.534,0,0,1-1.626,1.64q-3.7.009-7.408,0a1.548,1.548,0,0,1-1.641-1.636q-.009-3.72,0-7.44a1.528,1.528,0,0,1,1.6-1.6q3.72-.006,7.44,0a1.518,1.518,0,0,1,1.63,1.626C133.936,216.13,133.933,217.359,133.934,218.588Z" transform="translate(-123.252 -213.273)" fill="#fff"/>
      </g>
      <g id="Group_76" data-name="Group 76" transform="translate(0 34.399)">
        <path id="Path_1793" data-name="Path 1793" d="M28.69,247.8c0-1.23,0-2.46,0-3.691a1.511,1.511,0,0,1,1.63-1.623q3.691-.007,7.381,0a1.528,1.528,0,0,1,1.658,1.641q.015,3.69,0,7.381a1.531,1.531,0,0,1-1.659,1.641q-3.691.007-7.381,0a1.512,1.512,0,0,1-1.631-1.625c-.006-1.241,0-2.482,0-3.722Z" transform="translate(-28.687 -242.486)" fill="#fff"/>
      </g>
      <g id="Group_77" data-name="Group 77" transform="translate(5.132 51.037)">
        <path id="Path_1794" data-name="Path 1794" d="M68.533,342.437c0,1.22,0,2.439,0,3.659a1.528,1.528,0,0,1-1.644,1.649q-3.707.005-7.413,0a1.512,1.512,0,0,1-1.6-1.564q-.021-3.77,0-7.541a1.511,1.511,0,0,1,1.629-1.57q3.707,0,7.413,0a1.524,1.524,0,0,1,1.617,1.614c.007,1.251,0,2.5,0,3.754Z" transform="translate(-57.861 -337.067)" fill="#fff"/>
      </g>
      <g id="Group_78" data-name="Group 78" transform="translate(32.647 28.177)">
        <path id="Path_1795" data-name="Path 1795" d="M214.282,211.654c0-1.049,0-2.1,0-3.149a1.289,1.289,0,0,1,1.389-1.388q3.164,0,6.329,0a1.292,1.292,0,0,1,1.4,1.382q.006,3.164,0,6.329a1.3,1.3,0,0,1-1.408,1.4q-3.149.005-6.3,0a1.292,1.292,0,0,1-1.41-1.4C214.278,213.774,214.282,212.714,214.282,211.654Z" transform="translate(-214.28 -207.115)" fill="#fff"/>
      </g>
      <g id="Group_79" data-name="Group 79" transform="translate(20.926 13.123)">
        <path id="Path_1796" data-name="Path 1796" d="M155.361,125.415c0,.88,0,1.76,0,2.64a1.116,1.116,0,0,1-1.184,1.2q-2.688.009-5.375,0a1.083,1.083,0,0,1-1.146-1.135q-.015-2.719,0-5.439a1.063,1.063,0,0,1,1.112-1.134q2.735-.026,5.47,0a1.093,1.093,0,0,1,1.122,1.165c.006.9,0,1.8,0,2.7Z" transform="translate(-147.647 -121.537)" fill="#fff"/>
      </g>
      <g id="Group_80" data-name="Group 80" transform="translate(35.664 15.474)">
        <path id="Path_1797" data-name="Path 1797" d="M237.8,138.115c0,.721,0,1.442,0,2.163a.9.9,0,0,1-.984.994q-2.195.01-4.39,0a.915.915,0,0,1-.991-.995q-.009-2.179,0-4.358a.923.923,0,0,1,1.008-1.016q2.179-.01,4.358,0a.92.92,0,0,1,1,1.015c0,.732,0,1.463,0,2.195Z" transform="translate(-231.43 -134.9)" fill="#fff"/>
      </g>
      <g id="Group_81" data-name="Group 81" transform="translate(7.47 16.435)">
        <path id="Path_1798" data-name="Path 1798" d="M74.05,146.182c-.657,0-1.315,0-1.972,0a.844.844,0,0,1-.921-.935q-.006-1.972,0-3.944a.84.84,0,0,1,.923-.935q1.988-.012,3.976,0a.842.842,0,0,1,.922.937q.007,1.972,0,3.944a.842.842,0,0,1-.923.933C75.386,146.186,74.718,146.182,74.05,146.182Z" transform="translate(-71.154 -140.361)" fill="#fff"/>
      </g>
      <g id="Group_82" data-name="Group 82" transform="translate(29.381 0)">
        <path id="Path_1799" data-name="Path 1799" d="M198.605,52.72c-.667,0-1.335,0-2,0a.811.811,0,0,1-.886-.863q-.014-2.034.007-4.068a.806.806,0,0,1,.871-.848q2.018-.012,4.037,0a.809.809,0,0,1,.868.855q.021,2.034,0,4.068a.809.809,0,0,1-.893.856C199.941,52.724,199.273,52.72,198.605,52.72Z" transform="translate(-195.712 -46.932)" fill="#fff"/>
      </g>
    </g>
  </g>
</svg>
