<svg xmlns="http://www.w3.org/2000/svg" width="204" height="210.104" viewBox="0 0 204 210.104">
  <g id="Group_95" data-name="Group 95" transform="translate(-85.67 -70.278)">
    <g id="APPI" transform="translate(85.67 187.937)">
      <path id="Path_1800" data-name="Path 1800" d="M120.154,663.565l18.37,49.847q1.221,3.055,1.832,4.182,1.737,3.2,7.611,3.523v2.678q-13.108-.516-26.309,0v-2.678q4.651-.328,5.873-1.644,1.174-1.221-.094-4.134l-4.04-11.088h-20.2l-3.852,11.463a2.868,2.868,0,0,0,1.339,3.735q2.138,1.246,7.447,1.668v2.678q-11.275-.469-22.457,0v-2.678a13.865,13.865,0,0,0,6.859-1.926,9.505,9.505,0,0,0,3.476-4.932l17.477-50.693Zm-7.329,11.745L104.275,701.1h17.994Z" transform="translate(-85.67 -663.565)" fill="#0d4672"/>
      <path id="Path_1801" data-name="Path 1801" d="M463.881,701.922l-2.4.376v15.88a4.019,4.019,0,0,0,1.456,3.523q1.456,1.034,5.309,1.316v2.678q-12.4-.469-24.947,0v-2.678q3.9-.282,5.4-1.268a4.079,4.079,0,0,0,1.456-3.571v-44.82a3.91,3.91,0,0,0-1.433-3.336q-1.434-1.08-5.051-1.362v-2.725q3.524.189,8.363.188,2.913,0,9.02-.094l6.2-.094q25.6,0,25.6,15.88,0,7.8-6.859,12.873Q479.1,699.761,463.881,701.922Zm-2.4-32.981v30.115l2.4-.283q9.63-1.267,13.719-5.5a15.153,15.153,0,0,0,4.087-10.994q0-6.248-3.242-9.8t-9.537-3.547Z" transform="translate(-372.379 -665.464)" fill="#0d4672"/>
      <path id="Path_1802" data-name="Path 1802" d="M735.544,701.922l-2.4.376v15.88A4.019,4.019,0,0,0,734.6,721.7q1.456,1.034,5.308,1.316v2.678q-12.4-.469-24.947,0v-2.678q3.9-.282,5.4-1.268a4.08,4.08,0,0,0,1.457-3.571v-44.82a3.911,3.911,0,0,0-1.433-3.336q-1.434-1.08-5.051-1.362v-2.725q3.525.189,8.364.188,2.912,0,9.02-.094l6.2-.094q25.6,0,25.6,15.88,0,7.8-6.859,12.873Q750.765,699.761,735.544,701.922Zm-2.4-32.981v30.115l2.4-.283q9.63-1.267,13.718-5.5a15.158,15.158,0,0,0,4.087-10.994q0-6.248-3.242-9.8t-9.537-3.547Z" transform="translate(-590.166 -665.464)" fill="#0d4672"/>
      <path id="Path_1803" data-name="Path 1803" d="M1005.008,673.451v44.726a3.938,3.938,0,0,0,1.527,3.523q1.525,1.034,5.426,1.316v2.678q-12.591-.469-25.323,0v-2.678q3.994-.282,5.521-1.316a3.942,3.942,0,0,0,1.527-3.523V673.451a3.884,3.884,0,0,0-1.527-3.5q-1.528-1.009-5.521-1.292v-2.725q12.591.47,25.323,0v2.725q-3.9.282-5.426,1.315A3.888,3.888,0,0,0,1005.008,673.451Z" transform="translate(-807.961 -665.464)" fill="#0d4672"/>
    </g>
    <g id="ENERGY" transform="translate(114.698 263.225)">
      <path id="Path_1804" data-name="Path 1804" d="M241.482,1061.1h-9.441v-16.691h9.441v2.306h-6.713v4.544h6.29v2.283h-6.29v5.24h6.713Z" transform="translate(-232.041 -1044.171)" fill="#414243"/>
      <path id="Path_1805" data-name="Path 1805" d="M370.218,1061.1h-3.345l-8.208-13.3h-.091l.057.742q.159,2.123.16,3.881v8.676h-2.477v-16.691h3.311l8.185,13.231h.068q-.024-.263-.091-1.912t-.069-2.575v-8.745h2.5Z" transform="translate(-331.668 -1044.171)" fill="#414243"/>
      <path id="Path_1806" data-name="Path 1806" d="M516.564,1061.1h-9.441v-16.691h9.441v2.306h-6.713v4.544h6.29v2.283h-6.29v5.24h6.713Z" transform="translate(-452.57 -1044.171)" fill="#414243"/>
      <path id="Path_1807" data-name="Path 1807" d="M634.12,1054.434v6.667h-2.728v-16.691h4.715a7.745,7.745,0,0,1,4.783,1.21,4.344,4.344,0,0,1,1.553,3.653,4.566,4.566,0,0,1-3.242,4.441l4.715,7.386H640.81l-4-6.667Zm0-2.26h1.895a4.329,4.329,0,0,0,2.763-.708,2.568,2.568,0,0,0,.856-2.1,2.26,2.26,0,0,0-.925-2.032,5.072,5.072,0,0,0-2.786-.617h-1.8Z" transform="translate(-552.194 -1044.171)" fill="#414243"/>
      <path id="Path_1808" data-name="Path 1808" d="M768.725,1051.079h6.142v8.379a17.758,17.758,0,0,1-2.894.7,20.523,20.523,0,0,1-3,.205,7.531,7.531,0,0,1-5.845-2.243,9.037,9.037,0,0,1-2.055-6.331,8.444,8.444,0,0,1,2.317-6.308,8.715,8.715,0,0,1,6.382-2.277,12.425,12.425,0,0,1,4.955,1l-.959,2.272a9.638,9.638,0,0,0-4.064-.936,5.473,5.473,0,0,0-4.224,1.678,6.493,6.493,0,0,0-1.553,4.589,6.846,6.846,0,0,0,1.4,4.652,5.066,5.066,0,0,0,4.024,1.593,13.236,13.236,0,0,0,2.831-.331v-4.3h-3.459Z" transform="translate(-656.16 -1043.202)" fill="#414243"/>
      <path id="Path_1809" data-name="Path 1809" d="M905.1,1052.026l3.95-7.615h2.968l-5.559,10.218v6.473h-2.74v-6.382l-5.537-10.309h2.968Z" transform="translate(-766.078 -1044.171)" fill="#414243"/>
    </g>
    <g id="EMBLEM" transform="translate(159.003 70.278)">
      <g id="Group_84" data-name="Group 84" transform="translate(21.654 49.409)">
        <path id="Path_1810" data-name="Path 1810" d="M564.651,325.431q0-2.062,0-4.125a1.72,1.72,0,0,1,1.865-1.881q4.125-.007,8.25,0a1.731,1.731,0,0,1,1.912,1.911c.008,2.068,0,4.137,0,6.205a7.145,7.145,0,0,0,.623,3.137,5.18,5.18,0,0,0,4.093,2.958,12.7,12.7,0,0,0,1.927.134c1.949.017,3.9.006,5.847.008a1.706,1.706,0,0,1,1.857,1.818q.018,4.2,0,8.393a1.732,1.732,0,0,1-1.834,1.82q-4.143.01-8.285,0A1.74,1.74,0,0,1,579,343.888c0-2.092.005-4.184,0-6.277a7.369,7.369,0,0,0-.447-2.636,5.211,5.211,0,0,0-4.377-3.409,11.8,11.8,0,0,0-1.751-.112c-1.949-.013-3.9-.032-5.846.005a1.822,1.822,0,0,1-1.94-1.94C564.691,328.158,564.652,326.794,564.651,325.431Z" transform="translate(-564.637 -319.422)" fill="#0d4672"/>
      </g>
      <g id="Group_85" data-name="Group 85" transform="translate(5.232 65.822)">
        <path id="Path_1811" data-name="Path 1811" d="M481.842,422.539c0-1.4-.005-2.8,0-4.2a1.7,1.7,0,0,1,1.8-1.8c2.032-.011,4.065-.006,6.1-.005a7.994,7.994,0,0,0,2.924-.446,5.3,5.3,0,0,0,3.461-4.694,13.713,13.713,0,0,0,.069-1.611c.008-1.937,0-3.874.006-5.811a1.708,1.708,0,0,1,1.777-1.79c.215-.005.431,0,.646,0q3.856,0,7.711,0a1.745,1.745,0,0,1,1.895,1.866q.007,4.161,0,8.321a1.716,1.716,0,0,1-1.84,1.837c-2.08.006-4.161,0-6.241,0a7.51,7.51,0,0,0-2.911.513,5.245,5.245,0,0,0-3.259,4.38,9.787,9.787,0,0,0-.088,1.429c-.009,2.021,0,4.041,0,6.062a1.757,1.757,0,0,1-1.938,1.966c-2.738,0-5.476-.022-8.214.013a1.836,1.836,0,0,1-1.9-1.909c.049-1.373.012-2.75.012-4.125Z" transform="translate(-481.828 -402.181)" fill="#0d4672"/>
      </g>
      <g id="Group_86" data-name="Group 86" transform="translate(45.295 47.549)">
        <path id="Path_1812" data-name="Path 1812" d="M689.862,310.042c1.387,0,2.774,0,4.161,0a1.726,1.726,0,0,1,1.858,1.855q0,4.143,0,8.286a1.739,1.739,0,0,1-1.871,1.888q-4.125.005-8.25,0a1.748,1.748,0,0,1-1.915-1.918q0-4.089,0-8.179a1.74,1.74,0,0,1,1.927-1.932Q687.817,310.04,689.862,310.042Z" transform="translate(-683.844 -310.041)" fill="#6cae9b"/>
      </g>
      <g id="Group_87" data-name="Group 87" transform="translate(18.754 32.988)">
        <path id="Path_1813" data-name="Path 1813" d="M562.054,242.612c0,1.4,0,2.8,0,4.194a1.729,1.729,0,0,1-1.833,1.849q-4.176.01-8.352,0a1.745,1.745,0,0,1-1.85-1.844q-.01-4.194,0-8.388a1.723,1.723,0,0,1,1.81-1.8q4.194-.006,8.388,0a1.712,1.712,0,0,1,1.838,1.833C562.056,239.839,562.054,241.225,562.054,242.612Z" transform="translate(-550.012 -236.618)" fill="#6cae9b"/>
      </g>
      <g id="Group_88" data-name="Group 88" transform="translate(0 38.781)">
        <path id="Path_1814" data-name="Path 1814" d="M455.449,271.827c0-1.387,0-2.774,0-4.161a1.7,1.7,0,0,1,1.838-1.83q4.161-.008,8.321,0a1.723,1.723,0,0,1,1.869,1.85q.016,4.161,0,8.322a1.726,1.726,0,0,1-1.871,1.85q-4.161.007-8.321,0a1.7,1.7,0,0,1-1.839-1.832c-.007-1.4,0-2.8,0-4.2Z" transform="translate(-455.446 -265.832)" fill="#f7981d"/>
      </g>
      <g id="Group_89" data-name="Group 89" transform="translate(5.786 57.538)">
        <path id="Path_1815" data-name="Path 1815" d="M496.653,366.466c0,1.375,0,2.75,0,4.125a1.723,1.723,0,0,1-1.853,1.859q-4.179.006-8.358,0a1.7,1.7,0,0,1-1.808-1.764q-.024-4.25,0-8.5a1.7,1.7,0,0,1,1.837-1.77q4.179-.006,8.358,0a1.718,1.718,0,0,1,1.823,1.819c.009,1.411,0,2.822,0,4.233Z" transform="translate(-484.621 -360.412)" fill="#6cae9b"/>
      </g>
      <g id="Group_90" data-name="Group 90" transform="translate(36.806 31.767)">
        <path id="Path_1816" data-name="Path 1816" d="M641.042,235.578c0-1.183-.005-2.367,0-3.55a1.454,1.454,0,0,1,1.566-1.565q3.568,0,7.135,0a1.457,1.457,0,0,1,1.574,1.559q.007,3.568,0,7.135a1.46,1.46,0,0,1-1.587,1.582q-3.55.006-7.1,0a1.457,1.457,0,0,1-1.59-1.575C641.037,237.968,641.042,236.773,641.042,235.578Z" transform="translate(-641.04 -230.46)" fill="#0992d1"/>
      </g>
      <g id="Group_91" data-name="Group 91" transform="translate(23.592 14.795)">
        <path id="Path_1817" data-name="Path 1817" d="M583.1,149.255c0,.992,0,1.984,0,2.976a1.258,1.258,0,0,1-1.335,1.358q-3.03.011-6.06,0a1.221,1.221,0,0,1-1.292-1.28q-.016-3.066,0-6.132a1.2,1.2,0,0,1,1.254-1.278q3.084-.03,6.167,0a1.232,1.232,0,0,1,1.265,1.313c.007,1.016,0,2.032,0,3.048Z" transform="translate(-574.407 -144.883)" fill="#6cae9b"/>
      </g>
      <g id="Group_92" data-name="Group 92" transform="translate(40.207 17.445)">
        <path id="Path_1818" data-name="Path 1818" d="M665.372,161.87c0,.813,0,1.626,0,2.439a1.019,1.019,0,0,1-1.109,1.121q-2.474.011-4.949,0a1.031,1.031,0,0,1-1.117-1.121q-.01-2.457,0-4.913a1.04,1.04,0,0,1,1.136-1.145q2.457-.011,4.913,0a1.038,1.038,0,0,1,1.13,1.144c.005.825,0,1.65,0,2.475Z" transform="translate(-658.189 -158.246)" fill="#f7981d"/>
      </g>
      <g id="Group_93" data-name="Group 93" transform="translate(8.422 18.528)">
        <path id="Path_1819" data-name="Path 1819" d="M501.179,170.269c-.741,0-1.482,0-2.223,0a.951.951,0,0,1-1.039-1.054q-.007-2.223,0-4.446a.947.947,0,0,1,1.041-1.054q2.241-.014,4.482,0a.949.949,0,0,1,1.039,1.056q.007,2.223,0,4.446a.95.95,0,0,1-1.041,1.052C502.685,170.274,501.932,170.269,501.179,170.269Z" transform="translate(-497.913 -163.707)" fill="#0992d1"/>
      </g>
      <g id="Group_94" data-name="Group 94" transform="translate(33.124 0)">
        <path id="Path_1820" data-name="Path 1820" d="M625.734,76.8c-.753,0-1.505,0-2.258,0a.914.914,0,0,1-1-.973q-.015-2.293.008-4.587a.909.909,0,0,1,.982-.956q2.276-.014,4.551,0a.912.912,0,0,1,.978.963q.023,2.293,0,4.587a.912.912,0,0,1-1.007.966C627.239,76.807,626.487,76.8,625.734,76.8Z" transform="translate(-622.472 -70.278)" fill="#0093d4"/>
      </g>
    </g>
  </g>
</svg>
