<svg xmlns="http://www.w3.org/2000/svg" width="624" height="201.633" viewBox="0 0 624 201.633">
  <g id="Group_118" data-name="Group 118" transform="translate(-28.688 -46.922)">
    <g id="APPI" transform="translate(207.744 46.922)">
      <path id="Path_1826" data-name="Path 1826" d="M517.862,46.922l40.066,108.719q2.663,6.663,4,9.121,3.79,6.97,16.6,7.684v5.842q-28.589-1.126-57.383,0v-5.842q10.144-.716,12.809-3.585,2.56-2.663-.2-9.018l-8.813-24.183H480.87l-8.4,25q-1.743,5.433,2.92,8.146t16.242,3.637v5.842q-24.593-1.023-48.981,0v-5.842q9.937-.716,14.96-4.2,4.919-3.278,7.583-10.758L503.311,46.922ZM501.877,72.539,483.227,128.8h39.246Z" transform="translate(-442.649 -46.922)" fill="#0d4672"/>
      <path id="Path_1827" data-name="Path 1827" d="M845.163,127.783l-5.226.82v34.635q0,5.433,3.177,7.685t11.579,2.869v5.842q-27.052-1.023-54.411,0v-5.842q8.5-.615,11.784-2.766,3.175-2.253,3.176-7.788V65.481q0-4.919-3.125-7.276T801.1,55.234V49.291q7.685.411,18.24.41,6.352,0,19.674-.2t13.526-.205q55.846,0,55.846,34.635,0,17.011-14.96,28.077Q878.363,123.069,845.163,127.783Zm-5.226-71.934v65.684l5.226-.616q21-2.764,29.921-11.988T884,84.95q0-13.626-7.07-21.366t-20.8-7.736Z" transform="translate(-645.589 -48.266)" fill="#0d4672"/>
      <path id="Path_1828" data-name="Path 1828" d="M1116.827,127.783l-5.227.82v34.635q0,5.433,3.177,7.685t11.578,2.869v5.842q-27.052-1.023-54.412,0v-5.842q8.507-.615,11.785-2.766,3.174-2.253,3.177-7.788V65.481q0-4.919-3.126-7.276t-11.017-2.971V49.291q7.689.411,18.242.41,6.352,0,19.674-.2t13.526-.205q55.845,0,55.845,34.635,0,17.011-14.961,28.077Q1150.026,123.069,1116.827,127.783ZM1111.6,55.849v65.684l5.227-.616q21-2.764,29.921-11.988t8.914-23.978q0-13.626-7.072-21.366t-20.8-7.736Z" transform="translate(-799.745 -48.266)" fill="#0d4672"/>
      <path id="Path_1829" data-name="Path 1829" d="M1383.683,65.686v97.551q0,5.433,3.331,7.685t11.835,2.869v5.842q-27.463-1.023-55.233,0v-5.842q8.711-.615,12.042-2.869t3.331-7.685V65.686q0-5.43-3.331-7.634t-12.042-2.818V49.291q27.463,1.026,55.233,0v5.943q-8.507.615-11.835,2.869T1383.683,65.686Z" transform="translate(-953.908 -48.266)" fill="#0d4672"/>
    </g>
    <g id="ENERGY" transform="translate(334.372 211.132)">
      <path id="Path_1830" data-name="Path 1830" d="M755.992,464.171H735.4v-36.4h20.592v5.03H741.351v9.91H755.07v4.98H741.351v11.429h14.641Z" transform="translate(-735.4 -427.245)" fill="#414243"/>
      <path id="Path_1831" data-name="Path 1831" d="M890,464.171h-7.3l-17.9-29.008h-.2l.124,1.619q.348,4.631.349,8.466v18.923h-5.4v-36.4h7.221l17.852,28.858h.15q-.052-.572-.2-4.17t-.149-5.616V427.768H890Z" transform="translate(-805.919 -427.245)" fill="#414243"/>
      <path id="Path_1832" data-name="Path 1832" d="M1031.075,464.171h-20.592v-36.4h20.592v5.03h-14.641v9.91h13.719v4.98h-13.719v11.429h14.641Z" transform="translate(-891.497 -427.245)" fill="#414243"/>
      <path id="Path_1833" data-name="Path 1833" d="M1140.7,449.629v14.541h-5.951v-36.4h10.283q7.048,0,10.433,2.639t3.386,7.968q0,6.8-7.072,9.686l10.283,16.11h-6.772l-8.715-14.541Zm0-4.93h4.133q4.157,0,6.025-1.544a5.6,5.6,0,0,0,1.868-4.581,4.929,4.929,0,0,0-2.017-4.432q-2.016-1.344-6.075-1.344H1140.7Z" transform="translate(-962.014 -427.245)" fill="#414243"/>
      <path id="Path_1834" data-name="Path 1834" d="M1281.117,443.739h13.4v18.276a38.782,38.782,0,0,1-6.311,1.519,44.7,44.7,0,0,1-6.537.448q-8.266,0-12.748-4.892t-4.482-13.808q0-8.788,5.055-13.758t13.918-4.966a27.1,27.1,0,0,1,10.806,2.191l-2.091,4.955a21.016,21.016,0,0,0-8.864-2.042,11.937,11.937,0,0,0-9.213,3.66q-3.387,3.661-3.386,10.01,0,6.674,3.051,10.146t8.776,3.474a28.9,28.9,0,0,0,6.175-.722v-9.387h-7.544Z" transform="translate(-1035.604 -426.559)" fill="#414243"/>
      <path id="Path_1835" data-name="Path 1835" d="M1416.634,444.376l8.615-16.608h6.474L1419.6,450.053v14.118h-5.976V450.252l-12.076-22.484h6.474Z" transform="translate(-1113.408 -427.245)" fill="#414243"/>
    </g>
    <g id="EMBLEM" transform="translate(28.687 46.927)">
      <g id="Group_107" data-name="Group 107" transform="translate(47.23 107.766)">
        <path id="Path_1836" data-name="Path 1836" d="M137.908,309.182q0-4.5,0-9a3.75,3.75,0,0,1,4.069-4.1q9-.015,17.993,0c2.667,0,4.16,1.479,4.17,4.167.017,4.511.006,9.023.006,13.534a15.574,15.574,0,0,0,1.358,6.842,11.3,11.3,0,0,0,8.927,6.453,27.724,27.724,0,0,0,4.2.294c4.25.037,8.5.012,12.751.017a3.72,3.72,0,0,1,4.052,3.965q.038,9.153,0,18.306a3.777,3.777,0,0,1-4,3.969q-9.036.022-18.072,0c-2.667-.007-4.157-1.537-4.157-4.19,0-4.564.011-9.127-.006-13.69a16.088,16.088,0,0,0-.976-5.749c-1.684-4.392-5.012-6.72-9.547-7.436a25.664,25.664,0,0,0-3.818-.245c-4.251-.029-8.5-.07-12.751.011a3.973,3.973,0,0,1-4.23-4.23C138,315.131,137.91,312.155,137.908,309.182Z" transform="translate(-137.878 -296.077)" fill="#0d4672"/>
      </g>
      <g id="Group_108" data-name="Group 108" transform="translate(11.411 143.563)">
        <path id="Path_1837" data-name="Path 1837" d="M55.1,423.238c0-3.051-.011-6.1,0-9.153a3.7,3.7,0,0,1,3.916-3.932c4.433-.025,8.866-.014,13.3-.012a17.429,17.429,0,0,0,6.377-.971c4.685-1.808,6.958-5.42,7.548-10.238a29.99,29.99,0,0,0,.15-3.513c.017-4.224,0-8.449.013-12.673a3.727,3.727,0,0,1,3.876-3.9c.469-.011.939,0,1.408,0q8.41,0,16.82,0a3.806,3.806,0,0,1,4.132,4.069q.017,9.075,0,18.15a3.743,3.743,0,0,1-4.013,4.007c-4.537.013-9.075,0-13.612.009a16.376,16.376,0,0,0-6.35,1.119c-4.255,1.775-6.432,5.123-7.108,9.554a21.358,21.358,0,0,0-.192,3.117c-.02,4.407-.008,8.814-.008,13.221,0,2.767-1.479,4.283-4.227,4.287-5.972.011-11.944-.048-17.915.029a4,4,0,0,1-4.143-4.164c.106-2.995.026-6,.026-9Z" transform="translate(-55.069 -378.835)" fill="#0d4672"/>
      </g>
      <g id="Group_109" data-name="Group 109" transform="translate(98.792 103.708)">
        <path id="Path_1838" data-name="Path 1838" d="M270.21,286.7c3.025,0,6.05-.006,9.076,0a3.764,3.764,0,0,1,4.052,4.047q.008,9.036,0,18.073a3.793,3.793,0,0,1-4.08,4.118q-9,.011-17.995,0a3.814,3.814,0,0,1-4.177-4.185q0-8.919,0-17.838c0-2.724,1.488-4.211,4.2-4.214Q265.75,286.693,270.21,286.7Z" transform="translate(-257.085 -286.695)" fill="#6cae9b"/>
      </g>
      <g id="Group_110" data-name="Group 110" transform="translate(40.904 71.949)">
        <path id="Path_1839" data-name="Path 1839" d="M149.517,226.344c0,3.049.006,6.1,0,9.147a3.773,3.773,0,0,1-4,4.034q-9.108.021-18.217,0a3.806,3.806,0,0,1-4.035-4.022q-.022-9.148,0-18.295a3.758,3.758,0,0,1,3.947-3.927q9.148-.014,18.3,0a3.733,3.733,0,0,1,4.008,4C149.522,220.3,149.516,223.321,149.517,226.344Z" transform="translate(-123.252 -213.272)" fill="#6cae9b"/>
      </g>
      <g id="Group_111" data-name="Group 111" transform="translate(0 84.586)">
        <path id="Path_1840" data-name="Path 1840" d="M28.694,255.562c0-3.025-.011-6.05,0-9.075a3.716,3.716,0,0,1,4.009-3.992q9.075-.017,18.15,0a3.758,3.758,0,0,1,4.076,4.035q.036,9.074,0,18.15a3.765,3.765,0,0,1-4.08,4.034q-9.075.017-18.15,0a3.717,3.717,0,0,1-4.011-4c-.015-3.051,0-6.1,0-9.153Z" transform="translate(-28.687 -242.486)" fill="#f7981d"/>
      </g>
      <g id="Group_112" data-name="Group 112" transform="translate(12.619 125.496)">
        <path id="Path_1841" data-name="Path 1841" d="M84.1,350.271c0,3,.005,6,0,9a3.757,3.757,0,0,1-4.043,4.055q-9.115.014-18.229,0a3.717,3.717,0,0,1-3.943-3.847q-.053-9.271,0-18.542a3.715,3.715,0,0,1,4.005-3.861q9.115-.012,18.229,0a3.749,3.749,0,0,1,3.976,3.968c.018,3.077,0,6.155,0,9.232Z" transform="translate(-57.861 -337.067)" fill="#6cae9b"/>
      </g>
      <g id="Group_113" data-name="Group 113" transform="translate(80.277 69.286)">
        <path id="Path_1842" data-name="Path 1842" d="M214.284,218.276c0-2.581-.012-5.162,0-7.743a3.169,3.169,0,0,1,3.414-3.414q7.781-.009,15.563,0a3.177,3.177,0,0,1,3.434,3.4q.014,7.781,0,15.563a3.184,3.184,0,0,1-3.462,3.45q-7.742.012-15.485,0a3.177,3.177,0,0,1-3.468-3.436C214.275,223.489,214.284,220.883,214.284,218.276Z" transform="translate(-214.28 -207.115)" fill="#0992d1"/>
      </g>
      <g id="Group_114" data-name="Group 114" transform="translate(51.455 32.27)">
        <path id="Path_1843" data-name="Path 1843" d="M166.614,131.073c0,2.164,0,4.328,0,6.491a2.743,2.743,0,0,1-2.911,2.962q-6.609.023-13.217,0a2.663,2.663,0,0,1-2.819-2.791q-.036-6.687,0-13.374a2.614,2.614,0,0,1,2.735-2.788q6.725-.065,13.451-.01a2.687,2.687,0,0,1,2.759,2.865c.016,2.216,0,4.432,0,6.648Z" transform="translate(-147.647 -121.537)" fill="#6cae9b"/>
      </g>
      <g id="Group_115" data-name="Group 115" transform="translate(87.695 38.05)">
        <path id="Path_1844" data-name="Path 1844" d="M247.1,142.8c0,1.773.01,3.546,0,5.319a2.223,2.223,0,0,1-2.42,2.445q-5.4.024-10.794,0a2.249,2.249,0,0,1-2.437-2.446q-.021-5.358,0-10.716a2.269,2.269,0,0,1,2.478-2.5q5.358-.024,10.716,0a2.262,2.262,0,0,1,2.465,2.5c.012,1.8,0,3.6,0,5.4Z" transform="translate(-231.43 -134.9)" fill="#f7981d"/>
      </g>
      <g id="Group_116" data-name="Group 116" transform="translate(18.369 40.412)">
        <path id="Path_1845" data-name="Path 1845" d="M78.275,154.674c-1.616,0-3.233.011-4.849,0a2.075,2.075,0,0,1-2.266-2.3q-.014-4.849,0-9.7a2.066,2.066,0,0,1,2.27-2.3q4.888-.03,9.776,0a2.07,2.07,0,0,1,2.267,2.3q.016,4.849,0,9.7a2.072,2.072,0,0,1-2.269,2.294C81.56,154.684,79.918,154.674,78.275,154.674Z" transform="translate(-71.154 -140.361)" fill="#0992d1"/>
      </g>
      <g id="Group_117" data-name="Group 117" transform="translate(72.246 0)">
        <path id="Path_1846" data-name="Path 1846" d="M202.827,61.163c-1.641,0-3.283.01-4.924,0a1.993,1.993,0,0,1-2.177-2.123q-.034-5,.017-10a1.983,1.983,0,0,1,2.142-2.085q4.963-.03,9.926,0a1.989,1.989,0,0,1,2.134,2.1q.051,5,0,10a1.989,1.989,0,0,1-2.2,2.106C206.11,61.173,204.468,61.163,202.827,61.163Z" transform="translate(-195.712 -46.932)" fill="#0093d4"/>
      </g>
    </g>
  </g>
</svg>
